<svg width="794" height="720" xmlns="http://www.w3.org/2000/svg" xmlns:xlink="http://www.w3.org/1999/xlink" overflow="hidden"><defs><clipPath id="clip0"><rect x="0" y="0" width="794" height="720"/></clipPath></defs><g clip-path="url(#clip0)"><rect x="0" y="0" width="794" height="719.698" fill="#000000" fill-opacity="0"/><text font-family="Brush Script MT,Brush Script MT_MSFontService,sans-serif" font-style="italic" font-weight="400" font-size="427" transform="matrix(1 0 0 0.99958 105.225 367)">SS<tspan font-size="221" x="45.005" y="296.124">Design</tspan></text><path d="M15.5001 0.499843 204.5 0.499843 141.501 63.4728 78.4994 63.4728 78.4994 126.448 15.5001 189.42Z" stroke="#000000" stroke-width="0" stroke-miterlimit="8" fill="#0D0D0D" fill-rule="evenodd"/><path d="M779.5 0.499843 779.5 189.42 716.501 126.448 716.501 63.4728 653.499 63.4728 590.5 0.499843Z" stroke="#000000" stroke-width="0" stroke-miterlimit="8" fill="#0D0D0D" fill-rule="evenodd"/><path d="M15.5001 511.285 15.5001 322.365 78.4994 385.338 78.4994 448.312 141.501 448.312 204.5 511.285Z" stroke="#000000" stroke-width="0" stroke-miterlimit="8" fill="#0D0D0D" fill-rule="evenodd"/><path d="M779.5 511.285 590.5 511.285 653.499 448.312 716.501 448.312 716.501 385.338 779.5 322.365Z" stroke="#000000" stroke-width="0" stroke-miterlimit="8" fill="#0D0D0D" fill-rule="evenodd"/></g></svg>