<svg width="960" height="720" xmlns="http://www.w3.org/2000/svg" xmlns:xlink="http://www.w3.org/1999/xlink" overflow="hidden"><defs><clipPath id="clip0"><rect x="0" y="0" width="960" height="720"/></clipPath></defs><g clip-path="url(#clip0)"><rect x="0" y="0" width="960" height="720" fill="#000000" fill-opacity="0"/><path d="M325.967 520C271.024 520 226.483 512.577 226.483 503.42L226.484 291.08C226.484 281.923 181.943 274.5 127 274.5 181.943 274.5 226.484 267.077 226.484 257.92L226.484 45.5798C226.484 36.423 271.024 29 325.968 29" stroke="#000000" stroke-width="20" stroke-miterlimit="8" fill="none" fill-rule="evenodd"/><path d="M0 0 93.3573 0.000104987" stroke="#000000" stroke-width="20" stroke-linecap="round" stroke-miterlimit="8" fill="none" fill-rule="evenodd" transform="matrix(-1 0 0 1 837.357 372)"/><path d="M0 0 93.3573 0.000104987" stroke="#000000" stroke-width="20" stroke-linecap="round" stroke-miterlimit="8" fill="none" fill-rule="evenodd" transform="matrix(-1 0 0 1 835.357 179)"/><text font-family="Brush Script MT,Brush Script MT_MSFontService,sans-serif" font-style="italic" font-weight="400" font-size="333" transform="translate(254.514 363)">SS<tspan font-size="184" x="20.4863" y="302">Design</tspan></text><path d="M0 0 93.3573 0.000104987" stroke="#000000" stroke-width="20" stroke-linecap="round" stroke-miterlimit="8" fill="none" fill-rule="evenodd" transform="matrix(-1 0 0 1 931.357 275)"/><path d="M0 0 93.3573 0.000104987" stroke="#000000" stroke-width="20" stroke-linecap="round" stroke-miterlimit="8" fill="none" fill-rule="evenodd" transform="matrix(1 -1.22465e-16 -1.22465e-16 -1 127 372)"/><path d="M0 0 93.3573 0.000104987" stroke="#000000" stroke-width="20" stroke-linecap="round" stroke-miterlimit="8" fill="none" fill-rule="evenodd" transform="matrix(1 -1.22465e-16 -1.22465e-16 -1 127 179)"/><path d="M0 0 93.3573 0.000104987" stroke="#000000" stroke-width="20" stroke-linecap="round" stroke-miterlimit="8" fill="none" fill-rule="evenodd" transform="matrix(1 -1.22465e-16 -1.22465e-16 -1 34 275)"/><path d="M639.033 29C693.976 29 738.517 36.4231 738.517 45.5799L738.516 257.92C738.516 267.077 783.057 274.5 838 274.5 783.057 274.5 738.516 281.923 738.516 291.08L738.516 503.42C738.516 512.577 693.976 520 639.032 520" stroke="#000000" stroke-width="20" stroke-miterlimit="8" fill="none" fill-rule="evenodd"/></g></svg>