<svg width="765" height="518" xmlns="http://www.w3.org/2000/svg" xmlns:xlink="http://www.w3.org/1999/xlink" overflow="hidden"><defs><clipPath id="clip0"><rect x="0" y="0" width="765" height="518"/></clipPath></defs><g clip-path="url(#clip0)"><rect x="0" y="0" width="765" height="518.393" fill="#FFFFFF"/><text font-family="Brush Script MT,Brush Script MT_MSFontService,sans-serif" font-style="italic" font-weight="400" font-size="439" transform="matrix(1 0 0 1.00076 86.2915 371)">SS</text><path d="M-5.49997-5.50413 188.5-5.50413 123.834 59.2109 59.1661 59.2109 59.1661 123.928-5.49997 188.643Z" stroke="#000000" stroke-width="0" stroke-miterlimit="8" fill="#0D0D0D" fill-rule="evenodd"/><path d="M778.5-5.50408 778.5 188.643 713.834 123.928 713.834 59.211 649.166 59.211 584.5-5.50408Z" stroke="#000000" stroke-width="0" stroke-miterlimit="8" fill="#0D0D0D" fill-rule="evenodd"/><path d="M-5.49991 519.894-5.49991 325.747 59.1662 390.462 59.1662 455.179 123.834 455.179 188.5 519.894Z" stroke="#000000" stroke-width="0" stroke-miterlimit="8" fill="#0D0D0D" fill-rule="evenodd"/><path d="M778.5 519.894 584.5 519.894 649.166 455.179 713.834 455.179 713.834 390.462 778.5 325.747Z" stroke="#000000" stroke-width="0" stroke-miterlimit="8" fill="#0D0D0D" fill-rule="evenodd"/></g></svg>